PathFileType	4	(X/Y/Z)	E:\Qualisys_Data\Carbon_Farble_Plate\Data\Amateur_Runner\S14\T2\S14T2V22_c3d.trc
DataRate	CameraRate	NumFrames	NumMarkers	Units	OrigDataRate	OrigDataStartFrame	OrigNumFrames
200.000000	200.000000	4	39	mm	200.000000	39	316
Frame#	Time	LSHO			RSHO			LICST			RICST			LASIS			LHEEL			RASIS			LTROC			RTROC			SACR			LTH1			LSK4			LTH2			LTH3			RHM5			LSK2			LTH4			RTH1			LTOE			RTH2			RTH3			RTH4			LLEP			RLEP			LSK1			LSK3			RSK1			LHM5			RSK2			LFT1			RSK3			RSK4			LLME			RLME			RTOE			RHEEL			RFT1			RFT2			LFT2			
		X1	Y1	Z1	X2	Y2	Z2	X3	Y3	Z3	X4	Y4	Z4	X5	Y5	Z5	X6	Y6	Z6	X7	Y7	Z7	X8	Y8	Z8	X9	Y9	Z9	X10	Y10	Z10	X11	Y11	Z11	X12	Y12	Z12	X13	Y13	Z13	X14	Y14	Z14	X15	Y15	Z15	X16	Y16	Z16	X17	Y17	Z17	X18	Y18	Z18	X19	Y19	Z19	X20	Y20	Z20	X21	Y21	Z21	X22	Y22	Z22	X23	Y23	Z23	X24	Y24	Z24	X25	Y25	Z25	X26	Y26	Z26	X27	Y27	Z27	X28	Y28	Z28	X29	Y29	Z29	X30	Y30	Z30	X31	Y31	Z31	X32	Y32	Z32	X33	Y33	Z33	X34	Y34	Z34	X35	Y35	Z35	X36	Y36	Z36	X37	Y37	Z37	X38	Y38	Z38	X39	Y39	Z39	

40	0.195	-2683.222900390625	1386.522338867188	-459.3616638183594	-2675.59912109375	1369.919677734375	-147.3255310058594	-2772.47705078125	942.4080200195312	-459.0032958984375	-2757.272705078125	952.4443969726562	-176.7534332275391	-2732.754150390625	892.255859375	-433.4100646972656	-3096.9873046875	530.5944213867188	-350.6046142578125	-2731.859375	913.5451049804688	-198.4225006103516	-2864.09228515625	819.7614135742188	-469.5466918945312	-2872.1982421875	841.089599609375	-146.4156799316406	-2902.21484375	958.4271240234376	-327.1976623535156	-2725.752197265625	620.2313232421875	-491.78515625	-2904.340087890625	506.3436584472656	-443.0153503417969	-2795.53759765625	596.2465209960938	-464.104248046875	-2686.64453125	526.8917236328125	-477.4757690429688	-2838.817138671875	83.82402801513672	-186.0753936767578	-2810.083740234375	505.4180297851562	-470.7998962402344	-2760.6630859375	509.7521057128906	-452.9805908203125	-2706.34228515625	633.199951171875	-145.5160980224609	-3114.599609375	273.3094787597656	-386.6199035644531	-2783.856689453125	622.193359375	-144.1346130371094	-2687.8076171875	539.2862548828125	-179.4391784667969	-2769.27197265625	524.3839111328125	-169.8022918701172	-2728.5009765625	473.0855407714844	-471.5159912109375	-2736.25439453125	459.3464050292969	-178.6304473876953	-2805.982666015625	423.7439270019531	-459.8271179199219	-2905.79150390625	425.714111328125	-437.654296875	-2756.245849609375	338.2168884277344	-185.1431884765625	-3132.353515625	344.6275634765625	-445.8344116210938	-2832.321533203125	376.9152526855469	-176.8903656005859	-3124.45751953125	521.2810668945312	-327.7608337402344	-2810.390869140625	252.5422515869141	-208.2398071289062	-2876.199462890625	293.7179870605469	-196.1323852539062	-3070.03466796875	473.1566772460938	-415.6259765625	-2943.116455078125	140.7026214599609	-229.1837768554688	-2755.67333984375	79.63877868652344	-243.2244567871094	-3005.897216796875	121.7644500732422	-289.1143493652344	-2996.54248046875	85.88082122802734	-311.48681640625	-3015.38671875	99.41258239746094	-259.576171875	-3127.9375	529.6715698242188	-384.4279479980469
41	0.2	-2664.77685546875	1388.937866210938	-460.3262329101562	-2651.569091796875	1371.233276367188	-147.8186492919922	-2751.716796875	944.3624877929688	-459.0567626953125	-2739.587890625	953.5870971679688	-174.6150817871094	-2711.78857421875	894.580810546875	-433.8133850097656	-3066.7998046875	524.2921142578125	-350.6936645507812	-2712.507568359375	913.1900634765624	-197.1134338378906	-2843.452880859375	822.4144287109375	-470.1747741699219	-2853.072021484375	842.5441284179688	-146.7523345947266	-2881.438232421875	960.458251953125	-326.5255737304688	-2697.984375	625.3726806640625	-491.3043823242188	-2872.33935546875	506.5567932128906	-442.8806457519531	-2766.749267578125	599.27001953125	-462.9791870117188	-2655.3837890625	533.9345092773438	-476.7540588378906	-2839.034423828125	83.83641052246094	-185.8794860839844	-2777.78857421875	508.5224914550781	-470.657958984375	-2728.755126953125	514.3863525390625	-452.0727844238281	-2692.3388671875	630.982177734375	-145.3734130859375	-3072.541259765625	265.6735229492188	-386.1964721679688	-2770.80859375	623.2523193359375	-145.4729614257812	-2676.491943359375	536.6343994140625	-179.0615997314453	-2759.39306640625	524.140380859375	-168.7836151123047	-2695.740478515625	479.0804748535156	-470.8612060546875	-2727.592041015625	457.7049255371094	-178.8212585449219	-2771.258056640625	427.1965637207031	-459.208251953125	-2871.421630859375	426.3360595703125	-437.4967041015625	-2750.955078125	337.5489196777344	-185.4613037109375	-3093.568359375	336.7406616210938	-445.9739990234375	-2826.3994140625	377.0862731933594	-177.5556335449219	-3094.285400390625	512.4110107421875	-329.2404479980469	-2806.617919921875	252.9772491455078	-208.758544921875	-2872.701171875	294.5898132324219	-196.2660217285156	-3037.5654296875	467.840576171875	-416.5577697753906	-2942.52001953125	143.1104888916016	-229.1291046142578	-2755.539794921875	79.15343475341797	-243.2228698730469	-3005.8232421875	124.9672164916992	-290.26513671875	-2996.202392578125	88.37676239013672	-311.6783752441406	-3014.640625	101.7420501708984	-259.7749633789062	-3096.82421875	521.9802856445312	-384.8078918457031
42	0.205	-2646.771484375	1391.72119140625	-460.6328430175781	-2627.92822265625	1373.849609375	-148.8339233398438	-2731.5048828125	947.3076171875	-458.7501831054688	-2714.713134765625	954.2156982421876	-176.9015045166016	-2690.157958984375	896.1793823242188	-432.3783874511719	-3034.923095703125	515.3909301757812	-349.1384887695312	-2691.619140625	913.9083862304688	-196.0275115966797	-2821.947265625	824.9484252929688	-470.7670288085938	-2834.87109375	844.4918212890625	-147.5566253662109	-2860.07080078125	963.0169677734376	-326.4179992675781	-2670.416748046875	631.0617065429688	-490.4911193847656	-2840.956787109375	507.1563110351562	-442.6559753417969	-2739.848876953125	603.30029296875	-464.01220703125	-2624.75830078125	541.515625	-476.3220825195312	-2838.58154296875	83.97592163085938	-186.1032104492188	-2745.815185546875	511.8009033203125	-469.5003967285156	-2697.092529296875	519.4739379882812	-451.0222473144531	-2679.037841796875	629.4909057617188	-146.1704406738281	-3027.744873046875	262.3695678710938	-385.3847961425781	-2756.173095703125	624.0916137695312	-145.0669097900391	-2665.410400390625	535.4324951171875	-179.5372314453125	-2749.55908203125	525.2088012695312	-169.3240356445312	-2663.062744140625	485.0442199707031	-469.3372497558594	-2722.1474609375	458.8782653808594	-180.5843811035156	-2737.4345703125	431.1152648925781	-458.6117248535156	-2836.630859375	426.198486328125	-436.5476684570312	-2745.962158203125	337.2045593261719	-185.3864898681641	-3054.846923828125	328.4304504394531	-446.9263000488281	-2820.777099609375	378.3425903320312	-177.788330078125	-3063.940673828125	504.01611328125	-329.3630981445312	-2802.248779296875	254.8417053222656	-208.9959106445312	-2868.517578125	296.7872009277344	-196.7500152587891	-3004.395751953125	461.9451599121094	-416.1204223632812	-2940.062255859375	145.738037109375	-229.2484283447266	-2755.013671875	78.57046508789062	-242.9606781005859	-3003.724365234375	126.3996200561523	-290.7464294433594	-2995.335205078125	90.8544692993164	-312.0999145507812	-3014.629150390625	104.0006866455078	-260.7174987792969	-3066.9150390625	513.7228393554688	-385.3776550292969
43	0.21	-2627.73583984375	1394.694458007812	-461.4873657226562	-2604.187255859375	1376.88427734375	-150.3982086181641	-2708.143310546875	949.0853881835938	-456.390869140625	-2693.266357421875	956.4544677734376	-175.7381591796875	-2669.073974609375	899.0526733398438	-432.7278442382812	-3005.17724609375	507.4817504882812	-349.2556457519531	-2669.95703125	914.931396484375	-196.1470489501953	-2799.619384765625	827.8990478515625	-471.0939025878906	-2815.671630859375	846.165283203125	-148.7316741943359	-2838.452880859375	965.3345947265624	-325.5017395019531	-2643.075439453125	637.1856689453125	-490.1634216308594	-2809.448974609375	506.9329833984375	-442.1812133789062	-2710.526123046875	607.2564086914062	-461.7789916992188	-2595.13232421875	549.8107299804688	-475.4032897949219	-2838.479736328125	84.14846801757812	-186.2467651367188	-2714.746826171875	515.676513671875	-468.2185974121094	-2665.973388671875	524.2991333007812	-449.431640625	-2664.8212890625	628.4567260742188	-145.9827423095703	-2986.166748046875	254.5989074707031	-385.461669921875	-2743.7021484375	625.0125122070312	-145.1312103271484	-2655.96728515625	532.6693115234375	-180.0533447265625	-2738.782470703125	526.4996337890625	-169.6424865722656	-2631.042236328125	491.6321411132812	-468.5835571289062	-2712.516845703125	457.7337951660156	-181.1291198730469	-2703.327392578125	435.4097595214844	-457.7317199707031	-2802.638671875	426.9744873046875	-436.061767578125	-2741.871826171875	337.3860168457031	-185.6295471191406	-3014.023193359375	319.6278686523438	-446.3775634765625	-2814.989013671875	379.9542541503906	-178.5380249023438	-3033.5712890625	494.7310485839844	-329.4947204589844	-2799.72900390625	254.7281646728516	-208.9299621582031	-2864.104736328125	299.0907897949219	-196.3346557617188	-2971.4345703125	455.5040893554688	-415.5797729492188	-2938.42041015625	148.97216796875	-229.7971954345703	-2755.094970703125	78.18279266357422	-243.3750915527344	-3003.896484375	131.0575561523438	-290.7528686523438	-2994.3720703125	94.0981674194336	-312.1923522949219	-3011.96533203125	108.0074462890625	-260.3950500488281	-3036.4404296875	503.6972961425781	-385.0462341308594
